<svg id="Layer_1" data-name="Layer 1" xmlns="http://www.w3.org/2000/svg" viewBox="0 0 461.3715 495.5389"><title>icon-login2</title><path d="M606.9,626.4c-1-12.6-2-25.3-4.4-37.6-9-46.6-32.7-84.9-67.8-116.4-21.1-19-45.3-32.8-71.6-43.1-1.7-.7-3.3-1.5-5.5-2.5,1.6-1.3,2.5-2.1,3.5-2.8,3.6-2.4,7.3-4.8,10.8-7.2,39.7-27.9,61.1-66.2,63.9-114.5,1.4-25.4-4.7-49.3-17.5-71.4-16.3-28.4-38.3-50.9-68.2-65a170.8537,170.8537,0,0,0-57.4-15.3c-15.8-1.6-31.6-1.7-47.2,1.2-24.6,4.6-46.8,14.8-67.1,29.3C239.6,208.8,219.8,247,216.9,294c-1.5,24.5,5,47.7,16.2,69.4,12.7,24.7,31.6,43.7,55.1,58.4,2.1,1.3,4.2,2.8,6.5,4.4-.7.9-.9,1.3-1.2,1.4-1.4.6-2.8,1.3-4.2,1.8-43.9,17.5-80.4,44.4-107.3,83.8-23.5,34.3-34.9,72.3-36.4,113.5a17.7053,17.7053,0,0,0,21.3,17.8c9.9-2.2,14.8-8.2,14.7-18.9A157.0932,157.0932,0,0,1,202.8,546c34.5-60,87.7-91.2,155.7-98.5a189.358,189.358,0,0,1,59.1,3.4c46.9,9.9,86,32.8,115.8,70.6,18.5,23.4,30.7,49.8,35.1,79.5,1.4,9.5,1.9,19.1,2.5,28.7.7,9,8,15.8,18.1,15.3C600.5,644.2,607.7,636.6,606.9,626.4Zm-223-213.3c-54.3,2.7-98.7-23.6-120.5-68.2-19.8-40.6-13.7-80,13.1-115.3,20.8-27.5,50.3-41.7,84.3-46.4,3.9-.5,7.9-.8,13.4-1.3,40,.4,75.1,14.8,101.8,47.4,14.5,17.7,22.3,38,23.8,60.8,2.7,39.7-13.3,70.8-43.2,95.5C435.6,403.1,411,411.8,383.9,413.1Z" transform="translate(-145.589 -149.487)" fill="#fafbfc"/></svg>