<svg xmlns="http://www.w3.org/2000/svg" width="18" height="18" viewBox="0 0 18 18"><defs><style>.cls-1{fill:#00f354;}.cls-2{fill:none;}</style></defs><g id="Layer_2" data-name="Layer 2"><g id="Layer_1-2" data-name="Layer 1"><g id="Layer_2-2" data-name="Layer 2"><g id="Layer_1-2-2" data-name="Layer 1-2"><path class="cls-1" d="M17.19,17.14A10.05,10.05,0,0,0,17,15.8a7.27,7.27,0,0,0-2.4-4.13,8.18,8.18,0,0,0-2.55-1.53l-.19-.09L12,10l.39-.26a5.12,5.12,0,0,0,2.27-4.06A4.47,4.47,0,0,0,14,3.09,5.37,5.37,0,0,0,11.62.78a6.32,6.32,0,0,0-2-.54A5.84,5.84,0,0,0,8,.24a6.15,6.15,0,0,0-2.39,1,5.1,5.1,0,0,0-2.18,4A4.83,4.83,0,0,0,3.91,7.8a5.45,5.45,0,0,0,2,2.07L6.1,10v.05L6,10.11a8.05,8.05,0,0,0-3.81,3,7.51,7.51,0,0,0-1.29,4,.62.62,0,0,0,.6.64.38.38,0,0,0,.15,0,.61.61,0,0,0,.53-.67,5.53,5.53,0,0,1,.75-2.83,6.83,6.83,0,0,1,5.53-3.5,6.74,6.74,0,0,1,2.1.13,6.85,6.85,0,0,1,4.11,2.5,5.94,5.94,0,0,1,1.25,2.83c.05.33.06.67.09,1a.58.58,0,0,0,.62.54h0A.63.63,0,0,0,17.19,17.14ZM9.27,9.56A4.35,4.35,0,0,1,5,7.14a3.69,3.69,0,0,1,.47-4.09,4.3,4.3,0,0,1,3-1.65H9A4.53,4.53,0,0,1,12.54,3a3.73,3.73,0,0,1,.85,2.16,3.89,3.89,0,0,1-1.54,3.4A4.15,4.15,0,0,1,9.27,9.56Z"/><rect class="cls-2" width="18" height="18"/></g></g></g></g></svg>