<svg id="Layer_1" data-name="Layer 1" xmlns="http://www.w3.org/2000/svg" viewBox="0 0 553.9461 543.9252"><title>icon-games</title><path d="M367.5,236.2c-4.5,7.3-9.1,14.6-13.9,22.3-5-7-9.6-13.6-15-21.2A48.8665,48.8665,0,0,0,367.5,236.2Z" transform="translate(0.0045 0.007)" fill="#fafbfc"/><path d="M553.8,71.1c-1.3-9.6-8.6-13.1-17-15.2q-48-12-96-24.1Q379.45,16.35,318,1c-12.4-3.1-19.6.9-23.4,12.8-.3.9-.5,1.8-.8,2.7q-19.2,75.15-38.7,150.4c-1.4,5.5-1.3,5.7,3.9,8a207.464,207.464,0,0,1,50.6,32.6c1.3,1.1,2.6,2.1,4.6,3.8v-5.9c.4-20,8.1-36.1,25.6-46.5,20.4-12.1,41-23.8,61.4-35.8,3.2-1.9,5-1,6.7,1.9,3,5.1,6.2,10.1,9.3,15.1,9,14.6,18.1,29.1,26.8,43.8,10.6,17.8,11.5,36,1.2,54.3-4.8,8.6-11.5,15.3-21.6,16.9-13.6,2.2-25.4-1.8-35.4-11.4-1.2-1.2-2.5-2.3-3.8-3.4-.3.2-.5.3-.8.5,1.2,13.8,2.5,27.7,3.7,42.1-8.1-1.9-15.5-3.7-23.5-5.5.4,1.3.5,1.8.7,2.3,15.2,32.7,22.4,67,20.8,103-.2,3.4,1.2,4.9,4.5,5.7,20,4.9,40,10,60.1,15,13.2,3.3,22.6-2.3,25.9-15.4q38.25-152.55,76.5-305.2C553.4,78.9,554.3,74.8,553.8,71.1ZM328.3,84.2c-2.1,2.5-4.8,3-7.8,2.3-.6-.1-1.2-.3-2-.5-2.2,6.3-3.3,6.7-8.4,2.9.4-1.3.9-2.6,1.5-4.2-1-.4-1.9-.7-2.8-1.1-5.2-1.7-7.3-7.9-3.3-11.6s8.8-6.6,13.5-9.5c.7-.5,3.2.5,3.7,1.4,2.4,3.9,4.4,8,6.5,12.1C330.6,79,330.5,81.7,328.3,84.2Zm.2-31.9c-.2-2.9-2.4-3.4-4.4-3.5-1.8-.1-4.6,0-5.4,1.2-3.3,4.4-3.1,4.6-9.2,2,1.9-2.5,3.6-4.9,5.4-7.2,3.7-4.8,7.3-9.6,11.2-14.3,2.3-2.8,4.5-2.5,5.1.7,1.8,9,3.1,18,4.7,27.5C329,58,328.9,58,328.5,52.3ZM458.2,354.5c-5.1,6.6-10.1,13.1-15.3,19.6a4.2645,4.2645,0,0,1-2.8,1.6c-.6,0-1.6-1.4-1.7-2.3q-2.1-13.05-3.9-26.1c-.1-.4.2-.7.4-1.5,3.9,0,6.8.6,6.2,5.4-.4,3.1,2.1,3.8,4.3,4,1.8.2,4.7.3,5.5-.8,3.4-4.3,3.2-4.5,8.8-2.4C459.1,352.8,458.8,353.7,458.2,354.5Zm1-18.7c-2.3,1.7-4.8,3.2-7.1,4.9s-4.3,1.1-5.7-1.1a93.22,93.22,0,0,1-5.9-10.7c-2.6-6,.1-10.6,6.5-11.2,3.3-.3,5.2-1.7,5.6-5.4,2.6.6,4.8,1.2,7.3,1.8-.7,1.9-1.3,3.4-1.9,4.9C468.7,324.5,469,328.7,459.2,335.8Z" transform="translate(0.0045 0.007)" fill="#fafbfc"/><path d="M180.4,183.2C81.1,183.2-.7,264.8,0,364.3c.7,101.3,83.3,181,182.8,179.6,103-1.4,179-86.4,178.2-180.1C360.9,263.8,280.2,183.1,180.4,183.2ZM303,307.7a9.5484,9.5484,0,0,1,1,10c-6.3,15.5-12.7,30.9-18.9,46.4-1.5,3.8-3.9,5.3-8,5.6-17.3,1.3-34.6,2.8-51.9,4.3-3.6.3-6.5-.7-8.6-3.6-12.9-17.3-25.8-34.6-38.4-52.2a10.175,10.175,0,0,1-1-8c6.4-16.8,13.2-33.5,19.9-50.3,1.3-3.2,3.4-4.7,6.9-4.7,8.2-.1,16.3-.4,24.5-.9,6.9-.4,13.8-1.3,20.7-1.9,20.2.8,15.2-1.2,26,14.2C284.7,280.3,293.7,294.2,303,307.7Zm-94,77.1c-7.8,18.1-15.6,36.3-23.3,54.4a7.2633,7.2633,0,0,1-6.3,4.7c-20.8,1.9-41.6,3.9-62.5,5.6a7.6084,7.6084,0,0,1-5.5-2.8c-11.1-16.4-21.9-32.8-32.6-49.4a8.44,8.44,0,0,1-.5-6.6q11.25-28.2,23.2-56.1c.9-2.1,3.8-4.5,6-4.8,18.4-2.9,36.9-5.4,56.6-8.1,1.2.8,3.6,1.6,4.9,3.3,13.1,17.5,26.1,35.1,39.1,52.6A6.3663,6.3663,0,0,1,209,384.8Zm-62.6-170c1.7-4.4,2.9-9,4.2-13.6.9-3.3,2.7-5.1,6.4-5.3,9-.7,18.1-1.7,24.5-2.3,29.5,1,54.9,7.5,78.4,20.6,3.6,2,6.4,5.4,9.2,8.5.8.9,1,3,.6,4.4-.8,3.6-2.2,7-3.1,10.6-.9,3.7-3.2,5.1-6.8,5.2-8,.2-16,.6-24.1.9-10.4.4-20.8,1.1-31.2.9a42.05,42.05,0,0,1-15.6-3.4c-13.3-5.9-26.3-12.7-39.5-18.9C146,220.6,145,218.6,146.4,214.8ZM139.9,199c-1.2,4-2.3,7-2.9,10.1-1.4,7.2-5.4,12.2-11.5,16.5-13.1,9.3-25.8,19.1-38.4,29-6.3,5-13,8-21.1,8.5-7.2.4-14.4,1.7-21.7,2.6-.1-.4-.3-.8-.4-1.3C67.6,231.5,99.5,210.2,139.9,199Zm-78,192.2c-11.1,2.2-22.1,4.7-33.2,7-1.9.4-3.6.8-4.3-1.8-3.9-14.7-7.8-29.4-11.7-44.2-.3-1.3-.4-2.6-.7-4.7a75.5585,75.5585,0,0,1,2.2-8.4c7.2-18.5,14.6-36.9,21.9-55.4,1.4-3.6,3.5-5.9,7.6-6.4,9.4-1.1,18.7-2.6,28.1-3.9,2.8-.4,4.6.8,5.5,3.4,5.2,15.2,10.4,30.3,15.4,45.6a9.3519,9.3519,0,0,1-.5,5.7c-7.8,19.2-15.8,38.4-23.7,57.6A8.6451,8.6451,0,0,1,61.9,391.2ZM76.1,497.3c7-3.8,22.7,6,24.2,15.8C91.7,507.5,84,502.5,76.1,497.3ZM209,524.9c-17.1,1.9-34.2,4.1-51.3,5.9a32.3519,32.3519,0,0,1-24-7.1c-9.3-7.4-18.6-14.7-28.1-21.8-3.1-2.3-4-4.7-2.6-8.5,3.5-9.2,6.7-18.6,9.9-27.9,1-2.9,2.7-4.9,5.8-5.2q31.2-3,62.5-5.8c.1-.3.3-.5.4-.8,2.9,1.3,6.1,2.1,8.6,3.9,13.4,9.6,26.5,19.5,39.8,29.2,2.5,1.8,3.1,3.3,1.4,6.1-5.4,9-10.6,18.2-15.8,27.4A7.9987,7.9987,0,0,1,209,524.9Zm103.9-55.7a204.2947,204.2947,0,0,1-64.2,50.3c-5.2,2.6-11.1,3.9-16.8,5.6-1.5.5-3.3.1-5.6.1.9-2,1.4-3.6,2.2-5.1,3.5-6.3,7-12.6,10.5-19a54.5,54.5,0,0,1,15.8-17.3c13.1-9.7,26.4-19.2,39.3-29.2,5.3-4.1,10.5-6.5,17.4-4.8,4,1,8.2,1.2,13.8,2C320.8,458.2,317.3,464.1,312.9,469.2Zm21.3-33.6c-2.6,5.6-3.3,6.1-9.3,5.3-5.2-.7-10.4-1.6-15.6-2.2a4.8591,4.8591,0,0,1-4.7-4.4c-3.6-17.9-7.4-35.8-10.7-53.7a21.6767,21.6767,0,0,1,1.2-10.7c5.9-15.6,12.3-31.1,18.5-46.6,2-5.1,3.3-5.7,8.8-4.9,4.6.6,9.1,1.2,13.7,1.6,3.7.3,5.9,2,7.3,5.5,5.1,12.9,8.3,26.1,7.1,40.5A177.1945,177.1945,0,0,1,334.2,435.6Z" transform="translate(0.0045 0.007)" fill="#fafbfc"/><path d="M126.3,158.5c-10-21.6-20-43.2-29.8-64.8-2.1-4.6-5.2-6.5-10-6.8C74.2,86,61.9,85,49.6,84,38,82.9,26.5,82,14.2,81c.9,1.8,1.3,2.9,1.9,3.9,11.4,19.7,22.9,39.3,34.3,59,2,3.4,4.9,4.9,8.6,5.6,16.2,3.3,32.4,6.7,48.6,10,6.8,1.4,13.5,2.6,21,4C127.5,161.3,126.9,159.9,126.3,158.5ZM68.9,140.9c-1,1.7-3.3,2.6-5.6,4.2-3.1-2.1-6.3-3.5-8.4-5.9-1.1-1.3-1-4.7,0-6.4.7-1.2,3.9-2.1,5.4-1.6a20.99,20.99,0,0,1,7.4,4.8C68.8,137.1,69.6,139.8,68.9,140.9Zm9.5-19.5c-.6,1.5-2.8,2.3-5,3.9-3.3-2.2-6.7-4-9.3-6.5-1-.9-.8-4.3.1-5.6,1.4-1.8,3.8-3.5,6.5-1.7,2.3,1.5,4.8,2.9,6.6,4.9A6.15,6.15,0,0,1,78.4,121.4ZM88.1,102c-.5,1.6-3.2,2.4-5.4,3.9-3-1.8-5.9-3.1-8.2-5-2.1-1.9-3.3-4.9-.8-7.3,2.1-2.1,4.9-3.7,7.9-.9,1.5,1.3,3.5,2.1,4.6,3.6C87.4,97.9,88.6,100.5,88.1,102Z" transform="translate(0.0045 0.007)" fill="#fafbfc"/><path d="M175.7,91.1c-5.4-17-10.6-34.1-15.9-51.2-1.7-5.3-3.4-10.7-5.3-16.4-.9.8-1.4,1.2-1.9,1.7L106.4,78.6c-3.3,3.7-3,7.5-1.1,11.7L136.2,156c.5,1,1.1,2,2,3.5,1.2-1.9,2.2-3.3,3.1-4.7,11-17.8,21.9-35.6,33.1-53.3A11.7147,11.7147,0,0,0,175.7,91.1Zm-47.6.6a8.5673,8.5673,0,0,1-5.5,3.5c-1.7.2-4-5.6-3.2-7.5a26.3953,26.3953,0,0,1,3.1-6.3c1.1-1.4,3.7-3.4,4.7-3,1.6.7,2.4,3.2,3.3,4.5C129.5,86.5,129.4,89.4,128.1,91.7ZM144.2,138c-2,2.3-4.8,2-6.1-.6-2.4-4.8.7-13,5.8-15.3C148.6,127.5,148.7,133,144.2,138Zm3-38.6c-2.2,1.5-4.1.9-5.2-1.4-.8-1.6-1-3.5-1.7-6.1,1.3-2.5,2.5-5.7,4.3-8.5,1.5-2.3,3.6-1.8,5.2.2C152.7,87.3,151.2,96.8,147.2,99.4ZM151,60.1c-.9.6-2.9,1.1-3.5.6a16.3748,16.3748,0,0,1-2.9-4.1c.7-3.8,1-6.9,2-9.7a5.8455,5.8455,0,0,1,3.6-3.1c1-.2,2.6,1.4,3.4,2.6C156,50,154.5,57.7,151,60.1Zm16.7,41.1c-.7,1.1-4.1,2-4.4,1.7-1.4-2-2.8-4.4-2.9-6.7-.1-2,1.2-4.4,2.5-6.1,1.2-1.6,3.7-3.7,4.9-3.3,1.7.5,2.7,3.2,4.2,5.2C170.4,95.5,169.4,98.6,167.7,101.2Z" transform="translate(0.0045 0.007)" fill="#fafbfc"/><path d="M140.5,18c-21.6.5-43.2,1.1-64.7,1.5A13.288,13.288,0,0,0,66,23.6Q43.65,44.9,21.2,66c-1.5,1.4-3.3,2.5-5,3.8a16.9651,16.9651,0,0,0,1,1.4c1.6.2,3.1.6,4.7.7,9,.8,18.1,1.4,27.1,2.2,12.7,1.1,25.4,2.3,38.1,3.5,4.4.4,8.3-.1,11.4-3.8C110,60.1,121.5,46.6,133,33c4-4.8,8.1-9.6,12.7-15ZM71.6,49.8c2.9-6.5,12-11.1,18.2-8.9C87.1,47.9,77.4,52.5,71.6,49.8Z" transform="translate(0.0045 0.007)" fill="#fafbfc"/><path d="M328.5,44.7c-2.5-.5-4.1-.9-6.2-1.3,1.6-2.4,2.9-4.3,4.8-7.2C327.7,39.5,328,41.7,328.5,44.7Z" transform="translate(0.0045 0.007)" fill="#fafbfc"/><path d="M441.7,367.4a48.7418,48.7418,0,0,1-.2-5.4c0-.8.6-2,1.2-2.1a3.5217,3.5217,0,0,1,2.8.7,2.8434,2.8434,0,0,1,.1,2.4,49.001,49.001,0,0,1-3.1,4.8A5.9427,5.9427,0,0,0,441.7,367.4Z" transform="translate(0.0045 0.007)" fill="#fafbfc"/></svg>