<svg xmlns="http://www.w3.org/2000/svg" width="18" height="18" viewBox="0 0 18 18"><defs><style>.cls-1{fill:#00f354;}.cls-2{fill:none;}</style></defs><g id="Layer_2" data-name="Layer 2"><g id="Layer_1-2" data-name="Layer 1"><g id="Layer_2-2" data-name="Layer 2"><g id="Layer_1-2-2" data-name="Layer 1-2"><path class="cls-1" d="M11.88,7.86c-.15.24-.29.47-.45.71L11,7.9A1.55,1.55,0,0,0,11.88,7.86Z"/><path class="cls-1" d="M17.8,2.62c-.05-.31-.28-.42-.54-.48l-3.05-.77L10.3.39a.55.55,0,0,0-.71.29l0,.12V.88c-.4,1.6-.81,3.19-1.22,4.78-.05.18-.05.18.12.26A6.58,6.58,0,0,1,10,7l.14.12V6.89A1.64,1.64,0,0,1,11,5.41c.64-.41,1.3-.76,2-1.14.1-.06.16,0,.21.06l.3.48.85,1.39a1.68,1.68,0,0,1,0,1.73,1,1,0,0,1-.69.53,1.25,1.25,0,0,1-1.13-.36L12.41,8h0c0,.44.08.88.12,1.34l-.75-.18v.08a7,7,0,0,1,.66,3.27c0,.11,0,.15.14.18l1.91.48a.62.62,0,0,0,.8-.39.29.29,0,0,0,0-.1L17.75,3A1.2,1.2,0,0,0,17.8,2.62ZM10.63,3a.24.24,0,0,1-.25.08h-.06c-.07.2-.11.21-.27.09V3L10,3a.22.22,0,0,1-.16-.27.21.21,0,0,1,.06-.1,2.08,2.08,0,0,1,.43-.3h.11s.14.25.21.38A.22.22,0,0,1,10.63,3Zm0-1a.11.11,0,0,0-.13-.11h-.18A.26.26,0,0,1,10,2l.18-.23.35-.45c.07-.09.14-.08.16,0,.06.29.1.57.15.87-.21.06-.21.06-.22-.14Zm4.12,9.6-.49.63a.16.16,0,0,1-.09,0V12.2c-.05-.27-.09-.55-.12-.83h0s.21,0,.19.17.07.12.14.12a.28.28,0,0,0,.18,0c.1-.14.1-.14.28-.08l-.08,0Zm0-.59-.23.15c-.07.06-.13,0-.18,0a2.21,2.21,0,0,1-.18-.34.23.23,0,0,1,.2-.36c.11,0,.17,0,.18-.17l.23.06-.06.15c.38.17.39.3.08.5Z"/><path class="cls-1" d="M5.93,6.18a5.73,5.73,0,1,0,5.74,5.74A5.74,5.74,0,0,0,5.93,6.18Zm3.9,4a.29.29,0,0,1,0,.31L9.23,12a.27.27,0,0,1-.26.18l-1.64.13a.28.28,0,0,1-.28-.11c-.41-.55-.82-1.1-1.22-1.66a.28.28,0,0,1,0-.25c.2-.54.42-1.07.63-1.6a.22.22,0,0,1,.22-.15h.78l.66-.06c.64,0,.48,0,.82.45s.59.81.89,1.24Zm-3,2.45c-.25.57-.5,1.15-.74,1.72a.23.23,0,0,1-.2.15c-.66.06-1.32.13-2,.18a.22.22,0,0,1-.17-.09,16.74,16.74,0,0,1-1-1.57.26.26,0,0,1,0-.21c.24-.59.48-1.19.73-1.78a.28.28,0,0,1,.2-.15l1.79-.26a.44.44,0,0,1,.16.11c.42.55.83,1.11,1.24,1.67a.21.21,0,0,1,0,.19Zm-2-5.41c.06-.14.09-.28.14-.43a.2.2,0,0,1,.2-.17L6,6.51a5.29,5.29,0,0,1,2.49.66,1.06,1.06,0,0,1,.29.27v.13s-.07.23-.1.34a.21.21,0,0,1-.22.17H6.7A1.42,1.42,0,0,1,6.2,8c-.42-.19-.83-.41-1.25-.6a.18.18,0,0,1-.1-.22Zm-.2-.5c0,.13-.08.22-.1.32a.79.79,0,0,1-.36.53c-.42.29-.82.6-1.22.92a1.17,1.17,0,0,1-.67.27,2,2,0,0,0-.69.08h0A5.42,5.42,0,0,1,4.65,6.68ZM2.17,12.79,1.11,13H1c-.15-.51-.27-1-.4-1.45V11.4a.44.44,0,0,1,.07-.27c.23-.58.47-1.17.7-1.76a.28.28,0,0,1,.24-.2l.89-.12a.16.16,0,0,1,.18.09h0c.16.49.33,1,.49,1.45a.28.28,0,0,1,0,.18l-.75,1.83A.27.27,0,0,1,2.17,12.79Zm.45,3.37c.22-.12.72.19.77.5ZM6.84,17l-1.63.18A1,1,0,0,1,4.45,17c-.3-.24-.59-.47-.89-.69A.22.22,0,0,1,3.45,16l0,0c.11-.3.22-.6.32-.89A.2.2,0,0,1,4,15l2-.18H6l.27.13c.43.3.85.62,1.27.93.08,0,.1.1,0,.19l-.5.87A.25.25,0,0,1,6.84,17Zm3.3-1.77a6.31,6.31,0,0,1-2,1.59,2.55,2.55,0,0,1-.53.18.54.54,0,0,1-.18,0,1.22,1.22,0,0,1,.07-.17l.33-.6a1.78,1.78,0,0,1,.51-.55c.41-.31.83-.61,1.24-.93a.63.63,0,0,1,.56-.15,3.32,3.32,0,0,0,.44.06c-.19.26-.3.44-.44.61Zm.68-1.07c-.08.18-.11.19-.3.17l-.52,0a.15.15,0,0,1-.15-.14c-.12-.57-.24-1.14-.34-1.71a.65.65,0,0,1,0-.34c.18-.49.39-1,.58-1.48.07-.16.11-.18.28-.15h.44a.24.24,0,0,1,.23.17,3,3,0,0,1,.3,1.35,5.77,5.77,0,0,1-.52,2.2Z"/><path class="cls-1" d="M4.21,5.4C3.9,4.71,3.58,4,3.27,3.34A.34.34,0,0,0,3,3.12L1.78,3,.65,2.93c0,.06,0,.1.06.13L1.8,4.93a.36.36,0,0,0,.27.18l1.55.32.67.12ZM2.39,4.84,2.21,5a1.31,1.31,0,0,1-.27-.19.23.23,0,0,1,0-.2.19.19,0,0,1,.18,0,1.14,1.14,0,0,1,.23.15A.15.15,0,0,1,2.39,4.84Zm.3-.62-.16.12a1.94,1.94,0,0,1-.29-.21V4a.15.15,0,0,1,.2-.06h0a.83.83,0,0,1,.21.16A.22.22,0,0,1,2.69,4.22ZM3,3.6l-.17.12a1.35,1.35,0,0,1-.26-.15c-.07-.07-.11-.16,0-.24s.16-.11.25,0,.11.07.15.12A.21.21,0,0,1,3,3.6Z"/><path class="cls-1" d="M5.78,3.25c-.17-.54-.33-1.08-.5-1.62-.06-.17-.11-.34-.17-.52H5.05L3.58,2.86a.32.32,0,0,0,0,.37l1,2.09.06.11.1-.15,1-1.7A.35.35,0,0,0,5.78,3.25Zm-1.51,0a.25.25,0,0,1-.17.11c-.1,0-.1-.15-.1-.21A1.24,1.24,0,0,1,4.1,3c0-.05.12-.11.15-.1s.08.1.11.14a1.31,1.31,0,0,1-.09.28Zm.51,1.47a.1.1,0,0,1-.13.06.09.09,0,0,1-.06-.06.39.39,0,0,1,.18-.48.34.34,0,0,1,0,.48l0,0Zm.1-1.22H4.71V3.31c0-.08.08-.18.13-.27S4.91,3,5,3a.45.45,0,0,1-.12.52ZM5,2.27H4.89l-.1-.13a.4.4,0,0,1,.07-.31A.16.16,0,0,1,5,1.75l.11.08A.39.39,0,0,1,5,2.27Zm.53,1.3a.2.2,0,0,1-.14.06.4.4,0,0,1-.09-.21.3.3,0,0,1,.08-.2c0-.05.11-.12.15-.1a.56.56,0,0,1,.13.16A2.55,2.55,0,0,1,5.53,3.57Z"/><path class="cls-1" d="M4.66.93,2.61,1a.4.4,0,0,0-.31.13L.87,2.46l-.16.12H.86l.86.07L3,2.82a.36.36,0,0,0,.36-.12l1.1-1.29c.12-.15.25-.31.4-.48Zm-2.18,1a.52.52,0,0,1,.57-.28.48.48,0,0,1-.57.29Z"/><path class="cls-1" d="M10.64,1.78h-.2l.15-.23Z"/><path class="cls-1" d="M14.23,12v-.17a.09.09,0,0,1,0-.07h.08v.07c0,.07-.07.1-.1.16Z"/><rect class="cls-2" width="18" height="18"/></g></g></g></g></svg>