<svg xmlns="http://www.w3.org/2000/svg" width="18" height="18" viewBox="0 0 18 18"><defs><style>.cls-1{fill:#00f354;}.cls-2{fill:none;}</style></defs><g id="Layer_2" data-name="Layer 2"><g id="Layer_1-2" data-name="Layer 1"><g id="Layer_2-2" data-name="Layer 2"><g id="Layer_1-2-2" data-name="Layer 1-2"><path class="cls-1" d="M15.41,13.41v3.64c0,.18,0,.2-.2.2H10.63c-.2,0-.22,0-.22-.22V12.86c0-.23,0-.26-.24-.26H7.8c-.22,0-.24,0-.24.26V17c0,.21,0,.23-.22.23H2.79c-.19,0-.22,0-.22-.24V9.67A.38.38,0,0,1,3,9.33H3a.39.39,0,0,1,.35.39v6.42c0,.28,0,.31.28.31H6.49c.24,0,.27,0,.27-.28V12c0-.23,0-.24.21-.24h4c.24,0,.25,0,.25.27v4c0,.37,0,.38.35.38h2.84c.21,0,.24,0,.24-.26V9.83c0-.26.08-.4.26-.47a.37.37,0,0,1,.49.19.47.47,0,0,1,0,.17v.55C15.41,11.32,15.41,12.36,15.41,13.41Z"/><path class="cls-1" d="M9,.74l1,1q3.57,3.45,7.14,6.93c.21.2.39.42.58.64a.17.17,0,0,1,0,.21c-.18.34-.44.4-.71.14l-2.14-2.1L9.57,2.43,9.13,2C9,1.89,9,1.89,8.84,2L5,5.77,1.61,9c-.22.21-.43.43-.66.63a.71.71,0,0,1-.27.18A.43.43,0,0,1,.2,9.46a.47.47,0,0,1,0-.17A.3.3,0,0,1,.3,9.16c.49-.48,1-1,1.48-1.44L8.39,1.31Z"/><path class="cls-1" d="M13.69,2.19h1.52c.19,0,.2,0,.2.21V5.33a.39.39,0,0,1-.26.41.35.35,0,0,1-.43-.13.68.68,0,0,1-.08-.31v-2c0-.21,0-.24-.23-.24H12.28A1.17,1.17,0,0,1,11.91,3a.28.28,0,0,1-.21-.29.38.38,0,0,1,.21-.39.67.67,0,0,1,.28-.06Z"/><rect class="cls-2" width="18" height="18"/></g></g></g></g></svg>