<?xml version="1.0" encoding="iso-8859-1"?>
<!-- Generator: Adobe Illustrator 19.0.0, SVG Export Plug-In . SVG Version: 6.00 Build 0)  -->
<svg version="1.1" id="Layer_1" xmlns="http://www.w3.org/2000/svg" xmlns:xlink="http://www.w3.org/1999/xlink" x="0px" y="0px"
	 viewBox="0 0 491.546 491.546" style="enable-background:new 0 0 491.546 491.546;" xml:space="preserve">
<path style="fill:#E56353;" d="M145.623,0.688c-15.301,4.257-34.532,41.277-28.468,55.518c11.467,26.93,113.92,36.124,113.92,36.124
	l22.648-25.8C253.723,66.53,176.455-7.89,145.623,0.688z"/>
<path style="fill:#D15241;" d="M129.359,53.876c12.33,0.442,70.108,3.758,103.696,27.513l-6.769,3.524
	c0,0-77.493-10.684-97.611-29.387C128.028,54.925,128.473,53.844,129.359,53.876z"/>
<path style="fill:#E56353;" d="M345.923,0.688c15.3,4.257,34.531,41.277,28.468,55.518c-11.466,26.93-113.92,36.124-113.92,36.124
	l-22.648-25.8C237.823,66.53,315.09-7.89,345.923,0.688z"/>
<path style="fill:#D15241;" d="M362.188,53.876c-12.331,0.442-70.108,3.758-103.696,27.513l4.469,3.524
	c0,0,79.793-10.684,99.911-29.387C363.517,54.925,363.073,53.844,362.188,53.876z"/>
<path style="fill:#FCD462;" d="M484.148,84.913H7.396c-4.078,0-7.384,3.291-7.384,7.35v85.526c0,4.06,3.306,7.351,7.384,7.351
	h476.751c4.078,0,7.385-3.291,7.385-7.351V92.263C491.533,88.203,488.225,84.913,484.148,84.913z"/>
<rect x="26.263" y="185.139" style="fill:#F6C358;" width="439.04" height="15.027"/>
<path style="fill:#FCD462;" d="M26.265,200.167v281.204c0,5.605,4.564,10.149,10.196,10.149h418.625
	c5.632,0,10.196-4.544,10.196-10.149V200.167H26.265z"/>
<rect x="215.053" y="200.192" style="fill:#E56353;" width="61.44" height="291.354"/>
<rect x="215.053" y="185.139" style="fill:#D15241;" width="61.44" height="15.027"/>
<rect x="215.053" y="84.91" style="fill:#E56353;" width="61.44" height="100.229"/>
<path style="fill:#D15241;" d="M245.773,57.382c-15.274,0-27.656,12.325-27.656,27.53h55.311
	C273.429,69.708,261.047,57.382,245.773,57.382z"/>
<g>
</g>
<g>
</g>
<g>
</g>
<g>
</g>
<g>
</g>
<g>
</g>
<g>
</g>
<g>
</g>
<g>
</g>
<g>
</g>
<g>
</g>
<g>
</g>
<g>
</g>
<g>
</g>
<g>
</g>
</svg>
